<svg width="114" height="20" viewBox="0 0 114 20" fill="none" xmlns="http://www.w3.org/2000/svg">
<path d="M2.536 18.208H7.24C8.808 18.208 9.592 17.396 9.592 15.772V6.224C9.592 4.6 8.808 3.788 7.24 3.788H2.536C2.34933 3.788 2.256 3.872 2.256 4.04V17.956C2.256 18.124 2.34933 18.208 2.536 18.208ZM0.212 19.608V2.388C0.212 2.12667 0.342667 1.996 0.604 1.996H7.492C8.78 1.996 9.788 2.36933 10.516 3.116C11.2627 3.844 11.636 4.852 11.636 6.14V15.856C11.636 17.144 11.2627 18.1613 10.516 18.908C9.788 19.636 8.78 20 7.492 20H0.604C0.342667 20 0.212 19.8693 0.212 19.608ZM22.6026 20H20.1946C18.9066 20 17.8893 19.636 17.1426 18.908C16.4146 18.18 16.0506 17.1627 16.0506 15.856V9.864C16.0506 8.55733 16.4146 7.54 17.1426 6.812C17.8893 6.084 18.9066 5.72 20.1946 5.72H22.6026C23.8906 5.72 24.8986 6.084 25.6266 6.812C26.3733 7.54 26.7466 8.55733 26.7466 9.864V15.856C26.7466 17.1627 26.3733 18.18 25.6266 18.908C24.8986 19.636 23.8906 20 22.6026 20ZM20.4186 18.208H22.3786C23.9466 18.208 24.7306 17.4053 24.7306 15.8V9.92C24.7306 8.31467 23.9466 7.512 22.3786 7.512H20.4186C18.8506 7.512 18.0666 8.31467 18.0666 9.92V15.8C18.0666 17.4053 18.8506 18.208 20.4186 18.208ZM32.9626 20H31.7026C31.4413 20 31.3106 19.8693 31.3106 19.608V0.708C31.3106 0.446666 31.4413 0.316 31.7026 0.316H32.9626C33.2239 0.316 33.3546 0.446666 33.3546 0.708V19.608C33.3546 19.8693 33.2239 20 32.9626 20Z" fill="#EC3C05"/>
<path d="M45.3583 20H42.3343C41.0463 20 40.0289 19.636 39.2823 18.908C38.5543 18.18 38.1903 17.1627 38.1903 15.856V6.14C38.1903 4.83333 38.5543 3.816 39.2823 3.088C40.0289 2.36 41.0463 1.996 42.3343 1.996H45.3583C46.6463 1.996 47.6543 2.36933 48.3823 3.116C49.1103 3.844 49.4743 4.852 49.4743 6.14V7.288C49.4743 7.568 49.3436 7.708 49.0823 7.708H47.8223C47.5609 7.708 47.4303 7.568 47.4303 7.288V6.224C47.4303 4.6 46.6556 3.788 45.1063 3.788H42.5583C41.0089 3.788 40.2343 4.6 40.2343 6.224V15.772C40.2343 17.396 41.0089 18.208 42.5583 18.208H45.1063C46.6556 18.208 47.4303 17.396 47.4303 15.772V12.636C47.4303 12.4493 47.3463 12.356 47.1783 12.356H44.4063C44.1449 12.356 44.0143 12.2347 44.0143 11.992V10.956C44.0143 10.6947 44.1449 10.564 44.4063 10.564H48.9143C49.2876 10.564 49.4743 10.76 49.4743 11.152V15.856C49.4743 17.1627 49.1103 18.18 48.3823 18.908C47.6543 19.636 46.6463 20 45.3583 20ZM59.6387 20H58.0707C56.8014 20 55.8121 19.636 55.1027 18.908C54.3934 18.18 54.0387 17.1627 54.0387 15.856V6.112C54.0387 5.85067 54.1694 5.72 54.4307 5.72H55.6907C55.9521 5.72 56.0827 5.85067 56.0827 6.112V15.772C56.0827 17.396 56.8574 18.208 58.4067 18.208H60.0027C60.8427 18.208 61.4867 17.984 61.9347 17.536C62.3827 17.088 62.6067 16.4533 62.6067 15.632V6.112C62.6067 5.85067 62.7374 5.72 62.9987 5.72H64.2587C64.5201 5.72 64.6507 5.85067 64.6507 6.112V19.608C64.6507 19.8693 64.5201 20 64.2587 20H62.9987C62.7374 20 62.6067 19.8693 62.6067 19.608V18.516H62.4947C62.0281 19.5053 61.0761 20 59.6387 20ZM71.1388 20H69.8788C69.6175 20 69.4868 19.8693 69.4868 19.608V0.708C69.4868 0.446666 69.6175 0.316 69.8788 0.316H71.1388C71.4002 0.316 71.5308 0.446666 71.5308 0.708V19.608C71.5308 19.8693 71.4002 20 71.1388 20ZM81.7705 20H80.1185C78.8492 20 77.8599 19.636 77.1505 18.908C76.4412 18.18 76.0865 17.1627 76.0865 15.856V9.864C76.0865 8.55733 76.4412 7.54 77.1505 6.812C77.8599 6.084 78.8492 5.72 80.1185 5.72H81.7705C83.2265 5.72 84.1879 6.21467 84.6545 7.204H84.7665V0.708C84.7665 0.446666 84.8879 0.316 85.1305 0.316H86.4185C86.6612 0.316 86.7825 0.446666 86.7825 0.708V19.608C86.7825 19.8693 86.6612 20 86.4185 20H85.1305C84.8879 20 84.7665 19.8693 84.7665 19.608V18.516H84.6545C84.1879 19.5053 83.2265 20 81.7705 20ZM84.7665 15.632V10.088C84.7665 9.26667 84.5425 8.632 84.0945 8.184C83.6465 7.736 83.0025 7.512 82.1625 7.512H80.4545C78.9052 7.512 78.1305 8.324 78.1305 9.948V15.772C78.1305 17.396 78.9052 18.208 80.4545 18.208H82.1625C83.0025 18.208 83.6465 17.984 84.0945 17.536C84.5425 17.088 84.7665 16.4533 84.7665 15.632ZM96.94 20H95.372C94.1026 20 93.1133 19.636 92.404 18.908C91.6946 18.18 91.34 17.1627 91.34 15.856V6.112C91.34 5.85067 91.4706 5.72 91.732 5.72H92.992C93.2533 5.72 93.384 5.85067 93.384 6.112V15.772C93.384 17.396 94.1586 18.208 95.708 18.208H97.304C98.144 18.208 98.788 17.984 99.236 17.536C99.684 17.088 99.908 16.4533 99.908 15.632V6.112C99.908 5.85067 100.039 5.72 100.3 5.72H101.56C101.821 5.72 101.952 5.85067 101.952 6.112V19.608C101.952 19.8693 101.821 20 101.56 20H100.3C100.039 20 99.908 19.8693 99.908 19.608V18.516H99.796C99.3293 19.5053 98.3773 20 96.94 20ZM108.3 20H107.04C106.779 20 106.648 19.8693 106.648 19.608V6.112C106.648 5.85067 106.779 5.72 107.04 5.72H108.3C108.561 5.72 108.692 5.85067 108.692 6.112V7.232H108.804C108.991 6.82133 109.345 6.46667 109.868 6.168C110.391 5.86933 111.007 5.72 111.716 5.72H112.808C113.051 5.72 113.172 5.85067 113.172 6.112V7.148C113.172 7.27867 113.144 7.38133 113.088 7.456C113.032 7.512 112.939 7.53067 112.808 7.512H111.296C110.456 7.512 109.812 7.764 109.364 8.268C108.916 8.772 108.692 9.46267 108.692 10.34V19.608C108.692 19.8693 108.561 20 108.3 20Z" fill="black"/>
</svg>
