<svg aria-hidden="true" style="position: absolute; width: 0; height: 0; overflow: hidden;" version="1.1" xmlns="http://www.w3.org/2000/svg" xmlns:xlink="http://www.w3.org/1999/xlink">
<defs>
<symbol id="icon-applepay" viewBox="0 0 74 32">
<path fill="#757575" style="fill: var(--color1, #757575)" d="M13.502 4.565c-0.868 1.036-2.252 1.853-3.637 1.735-0.173-1.401 0.505-2.887 1.299-3.805 0.868-1.064 2.382-1.818 3.607-1.881 0.145 1.458-0.418 2.887-1.267 3.951h-0.002zM14.753 6.578c-2.003-0.118-3.722 1.154-4.671 1.154-0.969 0-2.425-1.096-4.013-1.064-2.061 0.030-3.978 1.209-5.031 3.092-2.167 3.759-0.563 9.332 1.525 12.395 1.025 1.516 2.252 3.178 3.868 3.12 1.525-0.058 2.132-1.006 3.978-1.006 1.862 0 2.393 1.006 4.013 0.978 1.671-0.030 2.723-1.516 3.748-3.035 1.17-1.724 1.645-3.397 1.673-3.487-0.030-0.030-3.231-1.267-3.261-5.001-0.028-3.122 2.522-4.608 2.64-4.696-1.44-2.16-3.692-2.393-4.47-2.453v0.002zM26.338 2.35v22.735h3.492v-7.772h4.83c4.412 0 7.514-3.065 7.514-7.495 0-4.433-3.044-7.468-7.396-7.468h-8.439zM29.831 5.327h4.025c3.028 0 4.756 1.632 4.756 4.505s-1.728 4.523-4.772 4.523h-4.013l0.005-9.028zM48.551 25.258c2.195 0 4.228-1.119 5.151-2.901h0.072v2.73h3.231v-11.317c0-3.279-2.596-5.398-6.591-5.398-3.709 0-6.445 2.144-6.547 5.088h3.145c0.258-1.401 1.542-2.317 3.302-2.317 2.135 0 3.332 1.006 3.332 2.859v1.253l-4.357 0.265c-4.052 0.247-6.247 1.922-6.247 4.839 0 2.945 2.264 4.899 5.511 4.899l-0.002-0.002zM49.489 22.563c-1.862 0-3.046-0.905-3.046-2.289 0-1.431 1.142-2.262 3.321-2.393l3.877-0.247v1.283c0 2.13-1.784 3.646-4.151 3.646zM61.318 31.27c3.404 0 5.003-1.313 6.399-5.296l6.129-17.384h-3.547l-4.11 13.431h-0.072l-4.11-13.431h-3.648l5.91 16.553-0.316 1.006c-0.533 1.705-1.396 2.361-2.942 2.361-0.275 0-0.805-0.030-1.025-0.058v2.73c0.203 0.058 1.068 0.085 1.331 0.090v-0.002z"></path>
</symbol>
<symbol id="icon-email" viewBox="0 0 43 32">
<path d="M37.333 0h-32c-2.2 0-3.98 1.8-3.98 4l-0.020 24c0 2.2 1.8 4 4 4h32c2.2 0 4-1.8 4-4v-24c0-2.2-1.8-4-4-4zM36.533 8.5l-14.14 8.84c-0.64 0.4-1.48 0.4-2.12 0l-14.14-8.84c-0.5-0.32-0.8-0.86-0.8-1.44 0-1.34 1.46-2.14 2.6-1.44l13.4 8.38 13.4-8.38c1.14-0.7 2.6 0.1 2.6 1.44 0 0.58-0.3 1.12-0.8 1.44z"></path>
</symbol>
<symbol id="icon-envelope" viewBox="0 0 43 32">
<path fill="#757575" style="fill: var(--color1, #757575)" d="M38.667 0h-34.667c-2.206 0-4 1.794-4 4v24c0 2.206 1.794 4 4 4h34.667c2.206 0 4-1.794 4-4v-24c0-2.206-1.794-4-4-4zM38.667 2.667c0.181 0 0.353 0.038 0.511 0.103l-17.844 15.466-17.844-15.466c0.158-0.066 0.33-0.103 0.511-0.103h34.667zM38.667 29.333h-34.667c-0.736 0-1.333-0.598-1.333-1.333v-22.413l17.793 15.421c0.251 0.217 0.563 0.326 0.874 0.326s0.622-0.108 0.874-0.326l17.793-15.421v22.413c0 0.736-0.598 1.333-1.333 1.333z"></path>
</symbol>
<symbol id="icon-facebook" viewBox="0 0 32 32">
<path fill="#757575" style="fill: var(--color1, #757575)" d="M21.329 5.313h2.921v-5.088c-0.504-0.069-2.237-0.225-4.256-0.225-4.212 0-7.097 2.649-7.097 7.519v4.481h-4.648v5.688h4.648v14.312h5.699v-14.311h4.46l0.708-5.688h-5.169v-3.919c0.001-1.644 0.444-2.769 2.735-2.769z"></path>
</symbol>
<symbol id="icon-googlepay" viewBox="0 0 83 32">
<path fill="#757575" style="fill: var(--color1, #757575)" d="M83.478 6.956l-10.902 24.347h-3.368l4.046-8.523-7.169-15.827h3.548l5.183 12.138h0.070l5.037-12.138 3.553 0.003zM38.202 14.49v9.858h-3.42v-24.347h9.068c0.065-0.003 0.138-0.003 0.214-0.003 2.168 0 4.148 0.798 5.663 2.118l-0.010-0.008c1.594 1.312 2.486 3.183 2.455 5.142 0 0.023 0 0.052 0 0.078 0 2.056-0.955 3.887-2.444 5.077l-0.013 0.010c-1.584 1.385-3.54 2.074-5.867 2.074h-5.645zM38.194 2.998v8.502h5.731c1.271 0.034 2.497-0.425 3.383-1.26 0.877-0.783 1.375-1.855 1.375-2.977 0-1.119-0.498-2.191-1.375-2.974-0.837-0.801-1.975-1.294-3.227-1.294-0.055 0-0.112 0-0.167 0.003h-5.721zM59.032 6.956c2.181 0 3.903 0.605 5.165 1.816 1.26 1.21 1.889 2.872 1.889 4.98v10.062h-2.82v-2.267h-0.128c-1.221 1.868-2.846 2.799-4.87 2.799-1.732 0-3.18-0.532-4.349-1.599-1.075-0.955-1.748-2.343-1.748-3.884 0-0.039 0-0.081 0.003-0.12v0.005c0-1.688 0.616-3.029 1.844-4.028s2.87-1.495 4.923-1.5c1.751 0 3.193 0.334 4.323 0.999v-0.699c0-0.010 0-0.023 0-0.037 0-1.064-0.47-2.022-1.213-2.671l-0.005-0.003c-0.73-0.694-1.722-1.119-2.812-1.119-0.013 0-0.023 0-0.036 0h0.003c-1.649 0-2.953 0.723-3.911 2.168l-2.598-1.698c1.427-2.131 3.54-3.201 6.342-3.201v-0.003zM55.218 18.817c0 0.008 0 0.016 0 0.023 0 0.803 0.383 1.518 0.976 1.972l0.005 0.005c0.65 0.532 1.461 0.814 2.293 0.801 1.242-0.003 2.434-0.522 3.316-1.432 0.903-0.835 1.469-2.027 1.469-3.35 0-0.005 0-0.013 0-0.013-0.921-0.764-2.202-1.145-3.848-1.145-1.2 0-2.199 0.303-2.997 0.905-0.806 0.605-1.21 1.346-1.21 2.236l-0.003-0.003zM14.194 0.001c0.052 0 0.112 0 0.175 0 3.597 0 6.874 1.377 9.331 3.634l-0.010-0.008-4.049 3.973c-1.388-1.294-3.256-2.087-5.309-2.087-0.050 0-0.096 0-0.146 0.003h0.008c-3.681 0.024-6.801 2.39-7.951 5.679l-0.018 0.060c-0.282 0.793-0.446 1.711-0.446 2.663s0.164 1.87 0.464 2.721l-0.018-0.057c1.166 3.35 4.289 5.716 7.967 5.739h0.003c1.917 0 3.558-0.48 4.834-1.325 1.492-0.973 2.515-2.504 2.83-4.234h-7.667v-5.356h13.388c0.164 0.937 0.243 1.878 0.243 2.828 0 4.234-1.544 7.816-4.224 10.237-2.35 2.129-5.58 3.36-9.41 3.36-0.018 0-0.036 0-0.057 0-5.46 0-10.2-3.076-12.587-7.589l-0.037-0.078c-0.952-1.816-1.51-3.965-1.51-6.248s0.558-4.432 1.547-6.324l-0.037 0.076c2.423-4.591 7.163-7.667 12.624-7.667 0.021 0 0.042 0 0.063 0z"></path>
</symbol>
<symbol id="icon-instagram" viewBox="0 0 32 32">
<path fill="#757575" style="fill: var(--color1, #757575)" d="M31.969 9.408c-0.075-1.7-0.35-2.869-0.744-3.882-0.406-1.075-1.031-2.038-1.85-2.838-0.8-0.813-1.769-1.444-2.832-1.844-1.019-0.394-2.182-0.669-3.882-0.744-1.713-0.081-2.257-0.1-6.601-0.1s-4.888 0.019-6.595 0.094c-1.7 0.075-2.869 0.35-3.882 0.744-1.075 0.406-2.038 1.031-2.838 1.85-0.813 0.8-1.444 1.769-1.844 2.832-0.394 1.019-0.669 2.182-0.744 3.882-0.081 1.713-0.1 2.257-0.1 6.601s0.019 4.888 0.094 6.595c0.075 1.7 0.35 2.869 0.744 3.882 0.406 1.075 1.038 2.038 1.85 2.838 0.8 0.813 1.769 1.444 2.832 1.844 1.019 0.394 2.182 0.669 3.882 0.744 1.706 0.075 2.25 0.094 6.595 0.094s4.888-0.019 6.595-0.094c1.7-0.075 2.869-0.35 3.882-0.744 2.151-0.832 3.851-2.532 4.682-4.682 0.394-1.019 0.669-2.182 0.744-3.882 0.075-1.707 0.094-2.251 0.094-6.595s-0.006-4.888-0.081-6.595zM29.087 22.473c-0.069 1.563-0.331 2.407-0.55 2.969-0.538 1.394-1.644 2.5-3.038 3.038-0.563 0.219-1.413 0.481-2.969 0.55-1.688 0.075-2.194 0.094-6.464 0.094s-4.782-0.019-6.464-0.094c-1.563-0.069-2.407-0.331-2.969-0.55-0.694-0.256-1.325-0.663-1.838-1.194-0.531-0.519-0.938-1.144-1.194-1.838-0.219-0.563-0.481-1.413-0.55-2.969-0.075-1.688-0.094-2.194-0.094-6.464s0.019-4.782 0.094-6.464c0.069-1.563 0.331-2.407 0.55-2.969 0.256-0.694 0.663-1.325 1.2-1.838 0.519-0.531 1.144-0.938 1.838-1.194 0.563-0.219 1.413-0.481 2.969-0.55 1.688-0.075 2.194-0.094 6.464-0.094 4.276 0 4.782 0.019 6.464 0.094 1.563 0.069 2.407 0.331 2.969 0.55 0.694 0.256 1.325 0.662 1.838 1.194 0.531 0.519 0.938 1.144 1.194 1.838 0.219 0.563 0.481 1.413 0.55 2.969 0.075 1.688 0.094 2.194 0.094 6.464s-0.019 4.77-0.094 6.458z"></path>
<path fill="#757575" style="fill: var(--color1, #757575)" d="M16.059 7.783c-4.538 0-8.22 3.682-8.22 8.22s3.682 8.22 8.22 8.22c4.539 0 8.22-3.682 8.22-8.22s-3.682-8.22-8.22-8.22zM16.059 21.335c-2.944 0-5.332-2.388-5.332-5.332s2.388-5.332 5.332-5.332c2.944 0 5.332 2.388 5.332 5.332s-2.388 5.332-5.332 5.332z"></path>
<path fill="#757575" style="fill: var(--color1, #757575)" d="M26.524 7.458c0 1.060-0.859 1.919-1.919 1.919s-1.919-0.859-1.919-1.919c0-1.060 0.859-1.919 1.919-1.919s1.919 0.859 1.919 1.919z"></path>
</symbol>
<symbol id="icon-linkedin" viewBox="0 0 32 32">
<path fill="#757575" style="fill: var(--color1, #757575)" d="M31.992 32v-0.001h0.008v-11.736c0-5.741-1.236-10.164-7.948-10.164-3.227 0-5.392 1.771-6.276 3.449h-0.093v-2.913h-6.364v21.364h6.627v-10.579c0-2.785 0.528-5.479 3.977-5.479 3.399 0 3.449 3.179 3.449 5.657v10.401h6.62z"></path>
<path fill="#757575" style="fill: var(--color1, #757575)" d="M0.528 10.636h6.635v21.364h-6.635v-21.364z"></path>
<path fill="#757575" style="fill: var(--color1, #757575)" d="M3.843 0c-2.121 0-3.843 1.721-3.843 3.843s1.721 3.879 3.843 3.879c2.121 0 3.843-1.757 3.843-3.879-0.001-2.121-1.723-3.843-3.843-3.843v0z"></path>
</symbol>
<symbol id="icon-npm" viewBox="0 0 80 32">
<path fill="#757575" style="fill: var(--color1, #757575)" d="M0 0.448v26.668h22.22v4.44h17.78v-4.44h40v-26.668h-80zM22.22 22.66h-4.44v-13.332h-4.45v13.332h-8.88v-17.77h17.77v17.77zM35.553 22.66v4.453h-8.883v-22.223h17.78v17.773l-8.897-0.003zM75.557 22.66h-4.432v-13.332h-4.453v13.332h-4.45v-13.332h-4.433v13.332h-8.903v-17.77h26.673l-0.003 17.77zM35.55 9.332h4.45v8.89h-4.45v-8.89z"></path>
</symbol>
<symbol id="icon-phone" viewBox="0 0 32 32">
<path d="M27.419 20.852l-4.201-0.48c-1.009-0.116-2.002 0.232-2.713 0.943l-3.044 3.044c-4.681-2.382-8.519-6.203-10.901-10.901l3.060-3.060c0.711-0.711 1.059-1.704 0.943-2.713l-0.48-4.168c-0.198-1.671-1.604-2.928-3.292-2.928h-2.862c-1.869 0-3.424 1.555-3.308 3.424 0.877 14.126 12.174 25.408 26.284 26.284 1.869 0.116 3.424-1.439 3.424-3.308v-2.861c0.016-1.671-1.241-3.077-2.911-3.275z"></path>
</symbol>
<symbol id="icon-playstation" viewBox="0 0 40 32">
<path fill="#757575" style="fill: var(--color1, #757575)" d="M14.975 0.326v29.246l6.525 2.101v-24.529c0-1.15 0.506-1.919 1.324-1.651 1.060 0.301 1.266 1.356 1.266 2.509v9.794c4.069 1.989 7.27-0.004 7.27-5.255 0-5.395-1.876-7.791-7.396-9.711-2.179-0.746-6.214-1.976-8.985-2.504h-0.004zM22.735 27.396l10.494-3.791c1.191-0.43 1.376-1.041 0.41-1.364-0.976-0.32-2.729-0.231-3.929 0.205l-7.009 2.499v-3.975l0.4-0.141c0 0 2.001-0.7 4.855-1.025 2.826-0.3 6.309 0.049 9.061 1.101 3.080 1.001 3.401 2.454 2.626 3.454s-2.704 1.726-2.704 1.726l-14.24 5.179v-3.829l0.035-0.039zM3.014 27c-3.166-0.909-3.69-2.78-2.254-3.869 1.335-0.975 3.599-1.751 3.599-1.751l9.36-3.355v3.855l-6.709 2.454c-1.175 0.451-1.375 1.054-0.399 1.376 0.976 0.325 2.729 0.25 3.905-0.2l3.23-1.176v3.456c-0.201 0.049-0.426 0.074-0.651 0.121-3.23 0.551-6.659 0.326-10.061-0.799l-0.020-0.113z"></path>
</symbol>
<symbol id="icon-rails" viewBox="0 0 83 32">
<path fill="#757575" style="fill: var(--color1, #757575)" d="M72.642 27.168v4.046h6.892c1.411 0 3.837-1.096 3.921-4.158v-1.565c0-2.616-2.024-4.158-3.921-4.158h-3.436v-1.878h6.809v-4.070h-6.535c-1.685 0-3.942 1.477-3.942 4.226v1.409c0 2.75 2.236 4.158 3.942 4.158 4.743 0.023-1.137 0 3.245 0v1.967l-6.976 0.023zM35.71 26.184c0 0 3.689-0.337 3.689-5.39s-4.469-5.523-4.469-5.523h-8.053v15.942h4.046v-3.845l3.498 3.845h5.987l-4.698-5.030zM34.15 22.918h-3.224v-3.644h3.245c0 0 0.905 0.357 0.905 1.811s-0.929 1.834-0.929 1.834h0.002zM49.39 15.384h-4.111c-2.93 0-3.921 2.817-3.921 4.158v11.671h4.111v-2.794h3.858v2.794h3.983v-11.671c0-3.399-2.909-4.158-3.921-4.158zM49.328 23.902h-3.879v-3.869c0 0 0-0.871 1.286-0.871h1.411c1.137 0 1.158 0.871 1.158 0.871v3.869h0.023zM55.19 15.384h4.278v15.832h-4.278v-15.832zM65.476 27.123v-11.739h-4.257v15.832h10.012v-4.093h-5.755zM1.477 31.214h16.654c0 0-3.182-15.407 7.357-21.644 2.298-1.184 9.613-5.611 21.587 3.78 0.378-0.336 0.738-0.603 0.738-0.603s-10.962-11.606-23.168-10.307c-6.133 0.582-13.68 6.506-18.107 14.332s-5.058 14.444-5.058 14.444l-0.003-0.003zM1.477 31.214h16.654c0 0-3.182-15.407 7.357-21.644 2.298-1.184 9.613-5.611 21.587 3.78 0.378-0.336 0.738-0.603 0.738-0.603s-10.962-11.606-23.168-10.307c-6.133 0.582-13.68 6.506-18.107 14.332s-5.058 14.444-5.058 14.444l-0.003-0.003zM1.477 31.214h16.654c0 0-3.182-15.407 7.357-21.644 2.298-1.184 9.613-5.611 21.587 3.78 0.378-0.336 0.738-0.603 0.738-0.603s-10.962-11.606-23.168-10.307c-6.157 0.582-13.703 6.506-18.128 14.332s-5.037 14.444-5.037 14.444l-0.003-0.003zM36.175 3.69l0.083-1.497c-0.19-0.112-0.717-0.381-2.045-0.783l-0.083 1.477c0.697 0.245 1.37 0.514 2.045 0.806v-0.003zM34.171 8.43l-0.083 1.409c0.697 0.024 1.39 0.112 2.087 0.269l0.083-1.385c-0.717-0.157-1.411-0.245-2.087-0.29v-0.003zM26.371 1.454h0.211l-0.423-1.364c-0.655 0-1.328 0.044-2.024 0.133l0.402 1.32c0.61-0.068 1.223-0.089 1.834-0.089zM27.384 9.682l0.485 1.542c0.611-0.313 1.224-0.582 1.834-0.783l-0.464-1.477c-0.717 0.224-1.328 0.47-1.855 0.715v0.003zM17.812 3.802l-0.95-1.542c-0.527 0.29-1.075 0.603-1.643 0.963l0.97 1.565c0.548-0.357 1.075-0.694 1.623-0.983v-0.003zM22.135 13.864l1.012 1.61c0.357-0.558 0.78-1.072 1.244-1.589l-0.95-1.521c-0.485 0.47-0.929 0.983-1.307 1.497v0.003zM19.077 21.064l1.709 1.432c0.083-0.871 0.232-1.745 0.443-2.617l-1.518-1.276c-0.274 0.827-0.464 1.654-0.631 2.46h-0.003zM9.845 10.441l-1.497-1.385c-0.548 0.558-1.075 1.119-1.56 1.677l1.623 1.477c0.443-0.603 0.929-1.208 1.432-1.766l0.003-0.003zM3.477 20.437l-2.424-0.939c-0.399 0.963-0.843 2.079-1.054 2.684l2.423 0.939c0.274-0.759 0.717-1.855 1.054-2.684zM18.762 26.743c0.042 1.184 0.149 2.147 0.253 2.817l2.53 0.963c-0.19-0.871-0.378-1.855-0.506-2.906l-2.277-0.874z"></path>
</symbol>
<symbol id="icon-smartphone" viewBox="0 0 20 32">
<path fill="#757575" style="fill: var(--color1, #757575)" d="M17 0h-14c-1.654 0-3 1.346-3 3v26c0 1.654 1.346 3 3 3h14c1.654 0 3-1.346 3-3v-26c0-1.654-1.346-3-3-3zM3 2h14c0.552 0 1 0.448 1 1v21h-16v-21c0-0.552 0.448-1 1-1zM17 30h-14c-0.552 0-1-0.448-1-1v-3h16v3c0 0.552-0.448 1-1 1z"></path>
<path fill="#757575" style="fill: var(--color1, #757575)" d="M4.707 27.478c0.391 0.365 0.391 0.956 0 1.321s-1.024 0.365-1.414 0c-0.391-0.365-0.391-0.956 0-1.321s1.024-0.365 1.414 0z"></path>
</symbol>
<symbol id="icon-twitter" viewBox="0 0 32 32">
<path fill="#757575" style="fill: var(--color1, #757575)" d="M32 6.078c-1.19 0.522-2.458 0.868-3.78 1.036 1.36-0.812 2.398-2.088 2.886-3.626-1.268 0.756-2.668 1.29-4.16 1.588-1.204-1.282-2.92-2.076-4.792-2.076-3.632 0-6.556 2.948-6.556 6.562 0 0.52 0.044 1.020 0.152 1.496-5.454-0.266-10.28-2.88-13.522-6.862-0.566 0.982-0.898 2.106-0.898 3.316 0 2.272 1.17 4.286 2.914 5.452-1.054-0.020-2.088-0.326-2.964-0.808 0 0.020 0 0.046 0 0.072 0 3.188 2.274 5.836 5.256 6.446-0.534 0.146-1.116 0.216-1.72 0.216-0.42 0-0.844-0.024-1.242-0.112 0.85 2.598 3.262 4.508 6.13 4.57-2.232 1.746-5.066 2.798-8.134 2.798-0.538 0-1.054-0.024-1.57-0.090 2.906 1.874 6.35 2.944 10.064 2.944 12.072 0 18.672-10 18.672-18.668 0-0.29-0.010-0.57-0.024-0.848 1.302-0.924 2.396-2.078 3.288-3.406z"></path>
</symbol>
<symbol id="icon-ubereats" viewBox="0 0 40 32">
<path fill="#757575" style="fill: var(--color1, #757575)" d="M0 0.584v8.484c0 3.2 2.234 5.316 5.134 5.316 1.416 0 2.684-0.55 3.584-1.5v1.266h2.016v-13.566h-2.034v8.366c0 2.15-1.45 3.6-3.334 3.6-1.9 0-3.334-1.416-3.334-3.6v-8.366h-2.033zM12.25 0.584v13.566h1.916v-1.25c0.896 0.916 2.145 1.484 3.526 1.484 0.009 0 0.016 0 0.025 0h-0.001c0.010 0 0.021 0 0.034 0 2.844 0 5.15-2.306 5.15-5.15 0-0.006 0-0.011 0-0.017v0.001c0-0.005 0-0.011 0-0.016 0-2.844-2.306-5.15-5.15-5.15-0.011 0-0.024 0-0.035 0h0.001c-1.384 0-2.616 0.566-3.55 1.466v-4.934h-1.916zM28.766 4.066c-2.934 0-5.084 2.35-5.084 5.134 0 2.95 2.284 5.134 5.25 5.134 1.8 0 3.284-0.766 4.266-2.084l-1.416-1.050c-0.734 0.984-1.7 1.466-2.85 1.466-1.666 0-3-1.216-3.266-2.816h8.034v-0.65c0-2.934-2.084-5.134-4.934-5.134zM39.084 4.184c-1.084 0-1.866 0.5-2.35 1.3v-1.216h-1.95v9.884h1.966v-5.65c0-1.5 0.934-2.5 2.2-2.5h0.816v-1.816h-0.684l0.001-0.001zM28.716 5.766c1.466 0 2.684 1.016 3.016 2.534h-6.034c0.35-1.516 1.566-2.534 3.016-2.534h0.001zM17.584 5.8c1.85 0 3.384 1.5 3.384 3.416 0 1.9-1.534 3.45-3.384 3.45-0.005 0-0.011 0-0.018 0-1.877 0-3.4-1.523-3.4-3.4 0-0.018 0-0.035 0-0.053v0.003c0-1.916 1.534-3.416 3.416-3.416h0.001zM0 17.6v13.566h9.534v-2.316h-6.95v-3.366h6.766v-2.25h-6.766v-3.316h6.95v-2.316l-9.534-0.001zM24.266 18.3v2.85h-1.934v2.266h1.934v5.334c0 1.35 0.95 2.416 2.666 2.416h2.734v-2.266h-1.9c-0.584 0-0.95-0.266-0.95-0.8v-4.684h2.85v-2.266h-2.85v-2.85h-2.55zM15.534 20.9c-2.984 0-5.334 2.334-5.334 5.266 0 2.916 2.35 5.25 5.334 5.25 1.2 0 2.316-0.416 3.2-1.15v0.9h2.534v-10.016h-2.534v0.9c-0.85-0.715-1.958-1.15-3.166-1.15-0.011 0-0.024 0-0.035 0h0.001zM35.066 20.9c-2.65 0-4.5 1.084-4.5 3.2 0 1.45 1.016 2.4 3.216 2.866l2.416 0.566c0.95 0.184 1.2 0.434 1.2 0.834 0 0.616-0.734 1.016-1.884 1.016-1.45 0-2.284-0.334-2.616-1.434h-2.55c0.366 2.084 1.916 3.466 5.084 3.466 2.9 0 4.566-1.384 4.566-3.316 0-1.366-0.966-2.384-3.016-2.816l-2.15-0.45c-1.25-0.234-1.65-0.5-1.65-0.934 0-0.6 0.6-0.966 1.716-0.966 1.2 0 2.084 0.334 2.334 1.4h2.534c-0.134-2.050-1.65-3.434-4.7-3.434v0.001zM15.75 23.1c1.684 0 3.034 1.35 3.034 3.066s-1.35 3.050-3.034 3.050c-0.005 0-0.011 0-0.016 0-1.675 0-3.034-1.358-3.034-3.034 0-0.006 0-0.011 0-0.017v0.001c0-1.716 1.384-3.066 3.050-3.066z"></path>
</symbol>
<symbol id="icon-uzer" viewBox="0 0 32 32">
<path d="M16 16c4.42 0 8-3.58 8-8s-3.58-8-8-8c-4.42 0-8 3.58-8 8s3.58 8 8 8zM16 20c-5.34 0-16 2.68-16 8v2c0 1.1 0.9 2 2 2h28c1.1 0 2-0.9 2-2v-2c0-5.32-10.66-8-16-8z"></path>
</symbol>
<symbol id="icon-icon" viewBox="0 0 32 32">
<path fill="#ec3c05" style="fill: var(--color2, #ec3c05)" d="M29.666 9.876c-1.598 0.945-2.458 1.331-4.114 1.244-0.623-0.007-0.953-0.276-1.569-0.218-0.573 0.022-0.867 0.24-1.441 0.436-0.881 0.276-1.362 0.524-2.286 0.815-0.587 0.167-0.96 0.175-1.569 0.385-0.523 0.225-0.272 0.044-0.638 0.472-0.473 0.531-0.358 0.945-0.803 1.854-0.552 1.193-0.488 1.352-0.172 1.498-0.208 0.61-0.258 1.018-0.208 1.679 0.057 0.502-0.15 0.85 0.38 1.25 0.724 0.546 2.243 1.825 2.631 1.846 0.58-0.021 2.272 0.044 3.132-0.559 0.194-0.124 0.251-0.247 0.086 0.218-0.035 0.058-2.143 1.723-2.372 1.715-1.623 0.053-1.935 0.13-1.964 0.168-0.187-0.073-1.43-1.579-2.192-1.026-0.294 0.182-0.43 0.357-0.545 0.684 0.1 0.211 0.574 0.546 1.010 0.822 0.631 0.408 0.688 0.836 1.319 0.989 0.767 0.174 1.584 0.058 2.071 0.123 0.187 0.051 1.878-0.451 2.931-1.025 0.975-0.509-1.34 0.982-1.906 1.716-1.706 0.546-1.225 0.567-2.035 0.735-0.752 0.174-0.717 0.131-1.233 0.298-0.53 0.131-0.968 0.865-0.465 1.25 0.301 0.255 1.24-0.102 2.164-0.131 0.409-0.007 2.078-0.785 2.458-0.988 0.946-0.516 1.641-1.229 2.2-1.636 0.774-0.545-0.874 1.505-1.57 2.363-0.201 0.277-0.294 0.334-0.544 0.691-0.415 0.546 0.114 1.375 0.379 1.244 0.308-0.116 0.509-0.741 0.846-0.945 0.172-0.095 0.631-0.778 1.061-1.244 0.315-0.363 0.545-0.523 0.846-0.901 0.509-0.64 0.616-1.127 1.061-1.811 0.272-0.357 0.465-0.465 0.716-0.901 1.326-2.545 0.939-3.686 2.208-5.504 0.387-0.538 0.824-0.669 1.441-0.989 0.573-4.239-1.326-6.609-1.312-6.616zM23.517 16.623c-0.301 1.069-0.272 1.192-0.846 1.592-0.695 0.538-0.731 0.131-2.329 1.032 0 0-0.66-0.698-1.699-1.032 0.007 0.015-0.28-1.352-0.846-1.811 1.347-1.040 1.311-1.919 1.526-1.89 0.48 0.044 1.247 0.291 2.666-0.254 0.817 1.578 1.806 1.498 1.526 2.363z"></path>
<path fill="#000" style="fill: var(--color3, #000)" d="M15.426 8.886c-0.631-0.429-0.695-0.858-1.319-0.996-0.767-0.189-1.591-0.073-2.071-0.167-0.186-0.022-1.877 0.48-2.924 1.032-0.989 0.531 1.333-0.96 1.906-1.723 1.698-0.516 1.211-0.538 2.035-0.727 0.745-0.152 0.709-0.109 1.225-0.262 0.523-0.145 0.967-0.873 0.466-1.287-0.308-0.233-1.24 0.124-2.157 0.131-0.415 0.030-2.086 0.808-2.465 1.026-0.946 0.502-1.641 1.214-2.2 1.592-0.781 0.575 0.874-1.469 1.569-2.319 0.201-0.291 0.294-0.349 0.552-0.691 0.402-0.56-0.122-1.389-0.379-1.287-0.316 0.145-0.516 0.77-0.896 0.989-0.136 0.080-0.595 0.764-1.017 1.244-0.316 0.349-0.545 0.509-0.846 0.909-0.516 0.618-0.616 1.105-1.060 1.76-0.272 0.392-0.473 0.494-0.717 0.945-1.326 2.53-0.946 3.672-2.207 5.46-0.387 0.574-0.824 0.698-1.441 1.032-0.574 4.232 1.319 6.595 1.311 6.58 1.598-0.923 2.451-1.309 4.114-1.25 0.624 0.036 0.953 0.305 1.569 0.261 0.573-0.036 0.867-0.254 1.441-0.429 0.882-0.298 1.361-0.546 2.243-0.822 0.631-0.182 1.003-0.189 1.613-0.429 0.523-0.197 0.272-0.015 0.638-0.429 0.466-0.545 0.358-0.96 0.76-1.847 0.595-1.214 0.53-1.374 0.215-1.505 0.201-0.625 0.258-1.025 0.208-1.679-0.065-0.509 0.151-0.865-0.379-1.243-0.724-0.567-2.243-1.847-2.623-1.854-0.588 0.007-2.279-0.058-3.139 0.516-0.193 0.153-0.251 0.276-0.086-0.167 0.036-0.080 2.143-1.745 2.372-1.767 1.503-0.033 1.882-0.095 1.953-0.129 0.149 0.004 1.427 1.581 2.204 1.031 0.287-0.196 0.43-0.371 0.552-0.683-0.108-0.225-0.581-0.56-1.018-0.815zM9.786 13.787c0.688-0.516 0.731-0.109 2.329-0.989 0-0.022 0.659 0.676 1.699 0.989-0.007 0.007 0.279 1.374 0.846 1.847-1.348 1.025-1.312 1.905-1.527 1.89-0.48-0.058-1.247-0.306-2.666 0.219-0.824-1.556-1.806-1.469-1.527-2.371 0.301-1.032 0.265-1.163 0.846-1.585z"></path>
</symbol>
<symbol id="icon-icon-2" viewBox="0 0 32 32">
<path fill="#000" style="fill: var(--color3, #000)" d="M20.662 7.758v1.579c0 0.442 0.351 0.801 0.782 0.801h4.58c0.435 0 0.783-0.359 0.783-0.801v-1.579h-6.145z"></path>
<path fill="#000" style="fill: var(--color3, #000)" d="M26.801 12.874h-2.344c-0.351 0-0.627 0.286-0.627 0.639v1.755c0 0.356 0.277 0.639 0.627 0.639h2.344c0.351 0 0.627-0.283 0.627-0.639v-1.755c0-0.353-0.276-0.639-0.627-0.639z"></path>
<path fill="#ec3c05" style="fill: var(--color2, #ec3c05)" d="M26.801 21.941h-2.344c-0.351 0-0.627 0.283-0.627 0.642v1.752c0 0.353 0.277 0.643 0.627 0.643h2.344c0.351 0 0.627-0.29 0.627-0.643v-1.752c0-0.359-0.276-0.642-0.627-0.642z"></path>
<path fill="#000" style="fill: var(--color3, #000)" d="M24.305 26.226h-16.277c-0.344 0-0.627 0.283-0.627 0.635v1.759c0 0.352 0.283 0.636 0.627 0.636h16.277c0.344 0 0.621-0.284 0.621-0.636v-1.759c0-0.352-0.277-0.635-0.621-0.635z"></path>
<path fill="#ec3c05" style="fill: var(--color2, #ec3c05)" d="M8.627 24.336v-1.756c0-0.356-0.283-0.639-0.627-0.639h-2.351c-0.341 0-0.617 0.283-0.617 0.639v1.756c0 0.352 0.277 0.643 0.617 0.643h2.351c0.344 0 0.628-0.29 0.628-0.643z"></path>
<path fill="#000" style="fill: var(--color3, #000)" d="M5.649 15.908h2.351c0.344 0 0.627-0.283 0.627-0.639v-1.755c0-0.353-0.283-0.639-0.627-0.639h-2.351c-0.344 0-0.621 0.287-0.621 0.64v1.755c0 0.356 0.277 0.639 0.621 0.639z"></path>
<path fill="#000" style="fill: var(--color3, #000)" d="M6.177 10.141h4.577c0.435 0 0.786-0.36 0.786-0.802v-1.579h-6.145v1.579c0 0.442 0.347 0.802 0.783 0.802z"></path>
<path fill="#ec3c05" style="fill: var(--color2, #ec3c05)" d="M22.104 12.874h-2.351c-0.344 0-0.621 0.286-0.621 0.639v1.755c0 0.356 0.276 0.639 0.621 0.639h2.351c0.344 0 0.621-0.283 0.621-0.639v-1.755c0-0.353-0.277-0.639-0.621-0.639z"></path>
<path fill="#ec3c05" style="fill: var(--color2, #ec3c05)" d="M25.102 19.821v-1.756c0-0.349-0.283-0.64-0.627-0.64h-2.351c-0.341 0-0.617 0.29-0.617 0.639v1.756c0 0.359 0.276 0.643 0.617 0.643h2.351c0.344 0 0.627-0.283 0.627-0.643z"></path>
<path fill="#000" style="fill: var(--color3, #000)" d="M19.753 24.978h2.351c0.344 0 0.621-0.291 0.621-0.643v-1.752c0-0.36-0.277-0.643-0.621-0.643h-2.351c-0.344 0-0.62 0.283-0.62 0.643v1.752c0 0.352 0.276 0.643 0.62 0.643z"></path>
<path fill="#000" style="fill: var(--color3, #000)" d="M20.398 19.821v-1.756c0-0.349-0.276-0.64-0.621-0.64h-2.351c-0.341 0-0.624 0.29-0.624 0.639v1.756c0 0.359 0.283 0.643 0.624 0.643h2.351c0.344 0 0.621-0.283 0.621-0.643z"></path>
<path fill="#ec3c05" style="fill: var(--color2, #ec3c05)" d="M15.056 24.978h2.344c0.344 0 0.627-0.291 0.627-0.643v-1.752c0-0.36-0.283-0.643-0.627-0.643h-2.344c-0.35 0-0.627 0.283-0.627 0.643v1.752c0 0.352 0.277 0.643 0.627 0.643z"></path>
<path fill="#000" style="fill: var(--color3, #000)" d="M17.401 15.908c0.344 0 0.627-0.283 0.627-0.639v-1.755c0-0.353-0.283-0.639-0.627-0.639h-2.344c-0.351 0-0.628 0.286-0.628 0.639v1.755c0 0.356 0.277 0.639 0.628 0.639h2.344z"></path>
<path fill="#ec3c05" style="fill: var(--color2, #ec3c05)" d="M15.702 19.821v-1.756c0-0.349-0.283-0.64-0.627-0.64h-2.351c-0.341 0-0.617 0.29-0.617 0.639v1.756c0 0.359 0.277 0.643 0.617 0.643h2.351c0.344 0 0.627-0.283 0.627-0.643z"></path>
<path fill="#000" style="fill: var(--color3, #000)" d="M10.386 24.978h2.351c0.344 0 0.627-0.291 0.627-0.643v-1.752c0-0.36-0.283-0.643-0.627-0.643h-2.351c-0.344 0-0.621 0.283-0.621 0.643v1.752c0 0.352 0.277 0.643 0.621 0.643z"></path>
<path fill="#ec3c05" style="fill: var(--color2, #ec3c05)" d="M12.704 15.908c0.344 0 0.621-0.283 0.621-0.639v-1.755c0-0.353-0.277-0.639-0.621-0.639h-2.351c-0.344 0-0.621 0.286-0.621 0.639v1.755c0 0.356 0.276 0.639 0.621 0.639h2.351z"></path>
<path fill="#000" style="fill: var(--color3, #000)" d="M7.402 18.066v1.756c0 0.355 0.283 0.639 0.628 0.639h2.35c0.341 0 0.617-0.284 0.617-0.639v-1.756c0-0.353-0.277-0.642-0.617-0.642h-2.35c-0.344 0-0.628 0.29-0.628 0.642z"></path>
<path fill="#000" style="fill: var(--color3, #000)" d="M11.538 7.13c0-0.456 0.374-1.24 4.566-1.254 4.182-0.014 4.557 0.798 4.557 1.254v0.132h6.145v-0.166c0-0.819-1.44-4.81-10.702-4.81-9.271 0-10.712 3.991-10.712 4.81v0.166h6.145v-0.132z"></path>
</symbol>
<symbol id="icon-icon-3" viewBox="0 0 32 32">
<path fill="#ec3c05" style="fill: var(--color2, #ec3c05)" d="M16 11.573c2.539 0 4.592-2.087 4.592-4.652-0-2.568-2.052-4.644-4.592-4.644s-4.592 2.076-4.592 4.644c-0 2.565 2.052 4.652 4.592 4.652z"></path>
<path fill="#000" style="fill: var(--color3, #000)" d="M24.179 23.669c1.266-1.142 2.016-2.56 2.016-4.097 0-3.776-4.529-6.838-10.117-6.838-0.026 0-0.052 0.001-0.078 0.001s-0.052-0.001-0.079-0.001c-5.587 0-10.116 3.061-10.116 6.838 0 1.537 0.75 2.955 2.016 4.097-3.088 0.76-5.078 1.95-5.078 3.288 0 2.296 3.292 4.092 13.179 2.739 0.027 0.004 0.052 0.007 0.079 0.012 0.027-0.005 0.052-0.008 0.078-0.012 9.887 1.354 13.179-0.443 13.179-2.739-0-1.338-1.991-2.528-5.079-3.288zM23.197 20.339c-0.035-0.002-0.070-0.006-0.105-0.006-0.995 0-1.803 0.807-1.803 1.803s0.807 1.802 1.803 1.802c0.035 0 0.070-0.003 0.105-0.005v1.921l-7.197 2.507-7.197-2.507v-1.921c0.035 0.002 0.069 0.005 0.104 0.005 0.995 0 1.802-0.807 1.802-1.802s-0.807-1.803-1.802-1.803c-0.035 0-0.070 0.004-0.104 0.006v-4.077l7.197 2.345 7.197-2.345v4.077z"></path>
</symbol>
<symbol id="icon-icon-4" viewBox="0 0 32 32">
<path fill="#ec3c05" style="fill: var(--color2, #ec3c05)" d="M18.693 4.702l-1.84-1.577c-0.202-0.175-0.504-0.175-0.706 0l-1.9 1.629c-0.173 0.148-0.235 0.387-0.156 0.6s0.281 0.354 0.509 0.354h0.543v1.086c0 0.3 0.243 0.543 0.543 0.543h1.629c0.3 0 0.543-0.243 0.543-0.543v-1.086h0.543c0.004 0.001 0.008 0.001 0.011 0 0.3 0 0.543-0.243 0.543-0.543 0-0.196-0.105-0.368-0.26-0.464z"></path>
<path fill="#ec3c05" style="fill: var(--color2, #ec3c05)" d="M14.317 27.344l1.84 1.577c0.202 0.175 0.504 0.175 0.706 0l1.9-1.629c0.173-0.147 0.235-0.387 0.156-0.6s-0.281-0.354-0.509-0.354h-0.543v-1.086c0-0.3-0.243-0.543-0.543-0.543h-1.629c-0.3 0-0.543 0.243-0.543 0.543v1.086h-0.543c-0.004-0.001-0.008-0.001-0.011 0-0.3 0-0.543 0.243-0.543 0.543 0 0.196 0.104 0.368 0.26 0.464z"></path>
<path fill="#ec3c05" style="fill: var(--color2, #ec3c05)" d="M27.549 18.477l1.577-1.84c0.175-0.202 0.175-0.504 0-0.706l-1.629-1.9c-0.147-0.173-0.387-0.235-0.6-0.156s-0.354 0.282-0.354 0.509v0.543h-1.086c-0.3 0-0.543 0.243-0.543 0.543v1.629c0 0.3 0.243 0.543 0.543 0.543h1.086v0.543c-0.001 0.004-0.001 0.008 0 0.011 0 0.3 0.243 0.543 0.543 0.543 0.196 0 0.368-0.104 0.464-0.26z"></path>
<path fill="#ec3c05" style="fill: var(--color2, #ec3c05)" d="M4.908 14.101l-1.577 1.84c-0.175 0.202-0.175 0.504 0 0.706l1.629 1.9c0.147 0.173 0.387 0.235 0.6 0.156s0.354-0.281 0.354-0.509v-0.543h1.086c0.3 0 0.543-0.243 0.543-0.543v-1.629c0-0.3-0.243-0.543-0.543-0.543h-1.086v-0.543c0.001-0.004 0.001-0.008 0-0.011 0-0.3-0.243-0.543-0.543-0.543-0.196-0-0.368 0.104-0.464 0.26z"></path>
<path fill="#000" style="fill: var(--color3, #000)" d="M21.098 23.492l-1.058-4.229 1.065-5.856c0.054-0.295-0.142-0.577-0.437-0.631-0.294-0.057-0.577 0.142-0.631 0.437l-1.005 5.525h-3.347c-0.3 0-0.543 0.243-0.543 0.543s0.243 0.543 0.543 0.543h0.391l-0.917 3.669c-0.073 0.29 0.104 0.585 0.395 0.658 0.044 0.011 0.088 0.016 0.132 0.016 0.244 0 0.464-0.164 0.526-0.411l0.983-3.932h1.867l0.983 3.932c0.061 0.247 0.283 0.411 0.526 0.411 0.043 0 0.088-0.006 0.132-0.016 0.291-0.072 0.468-0.367 0.395-0.658z"></path>
<path fill="#000" style="fill: var(--color3, #000)" d="M18.579 18.194l0.395-2.171h-10.345v8.143h1.629v-5.972h8.322z"></path>
<path fill="#000" style="fill: var(--color3, #000)" d="M21.181 16.023l-0.395 2.171h1.414v5.972h1.629v-8.143h-2.647z"></path>
<path fill="#000" style="fill: var(--color3, #000)" d="M15.686 13.309v-4.886h-5.972v4.886h2.171v0.543c0 0.494-0.248 0.543-1.086 0.543-1.115 0-1.086 0.591-1.086 1.086h5.972c0-0.494 0-1.086-1.086-1.086-0.838 0-1.086-0.049-1.086-0.543v-0.543h2.172zM10.8 12.223v-2.714h3.8v2.714h-3.8z"></path>
</symbol>
</defs>
</svg>
